<svg width="25" height="24" viewBox="0 0 25 24" fill="none" xmlns="http://www.w3.org/2000/svg">
<g clip-path="url(#clip0_5_5614)">
<path d="M14.3006 9.61963H13.3086C13.3086 10.0085 13.312 11.3131 13.3154 11.6875C13.6708 11.6875 14.0737 11.6838 14.3006 11.6838C14.8693 11.6838 15.3501 11.2114 15.3501 10.6517C15.3501 10.0921 14.8693 9.61963 14.3006 9.61963Z" fill="white"/>
<path d="M7.1062 12.8613H8.7448L7.92888 10.6663L7.1062 12.8613Z" fill="white"/>
<path d="M19.1215 15.0927C19.1215 15.4852 18.8067 15.805 18.4173 15.805C18.028 15.805 17.7131 15.4852 17.7131 15.0927V8.90733C17.7131 8.51484 18.028 8.19503 18.4173 8.19503C18.8067 8.19503 19.1215 8.51484 19.1215 8.90733V15.0927ZM14.3581 13.1121C14.1313 13.1121 13.7216 13.1121 13.3627 13.1157V15.0927C13.3627 15.4852 13.0479 15.805 12.6586 15.805C12.2692 15.805 11.9544 15.4852 11.9544 15.0927V8.91096C11.9544 8.72199 12.0288 8.54028 12.1609 8.40581C12.2929 8.27135 12.4724 8.19503 12.6586 8.19503H14.3547C15.7089 8.19503 16.8126 9.29982 16.8126 10.6554C16.8126 12.0109 15.7089 13.1157 14.3547 13.1157L14.3581 13.1121ZM10.634 15.7614C10.5528 15.7941 10.4681 15.8086 10.3869 15.8086C10.1025 15.8086 9.83502 15.6342 9.73007 15.3471L9.33735 14.2895H6.63232L6.23621 15.3471C6.0974 15.7141 5.69114 15.8995 5.32889 15.7614C4.96664 15.6233 4.78382 15.209 4.92263 14.8419C4.92263 14.8419 7.21463 8.73289 7.21801 8.72925C7.34666 8.40582 7.65136 8.19867 7.99668 8.19867C8.33862 8.19867 8.64332 8.40582 8.77536 8.72925C8.77536 8.73652 11.0504 14.8455 11.0504 14.8455C11.1892 15.2126 11.003 15.6269 10.6408 15.765L10.634 15.7614ZM24.0644 14.0933L22.4969 13.1738C22.5477 12.7632 22.5714 12.3743 22.5714 12C22.5714 11.6257 22.5477 11.2405 22.4969 10.8262L24.0644 9.90672C24.3996 9.71048 24.5147 9.27438 24.3217 8.93277L20.9869 3.06723C20.794 2.72562 20.364 2.60933 20.0255 2.80557L18.4647 3.72138C17.8486 3.25984 17.1748 2.86735 16.4571 2.55118V0.712296C16.4571 0.319806 16.1423 0 15.7529 0H9.08005C8.69072 0 8.37586 0.319806 8.37586 0.712296V2.55118C7.65475 2.86735 6.98441 3.25984 6.36825 3.72138L4.80752 2.80557C4.47235 2.60933 4.04239 2.72562 3.84603 3.06723L0.511284 8.93277C0.318309 9.27438 0.433417 9.71048 0.768584 9.90672L2.33608 10.8262C2.2853 11.2368 2.2616 11.6257 2.2616 12C2.2616 12.3743 2.2853 12.7595 2.33608 13.1738L0.768584 14.0933C0.433417 14.2895 0.318309 14.7256 0.511284 15.0672L3.84603 20.9328C4.039 21.2744 4.46897 21.3907 4.80752 21.1944L6.36825 20.2786C6.98441 20.7402 7.65813 21.1326 8.37586 21.4488V23.2877C8.37586 23.6802 8.69072 24 9.08005 24H15.7529C16.1423 24 16.4571 23.6802 16.4571 23.2877V21.4488C17.1782 21.1326 17.8486 20.7402 18.4647 20.2786L20.0255 21.1944C20.3606 21.3907 20.7906 21.2744 20.9869 20.9328L24.3217 15.0672C24.5147 14.7256 24.3996 14.2895 24.0644 14.0933Z" fill="white"/>
</g>
<defs>
<clipPath id="clip0_5_5614">
<rect width="24" height="24" fill="white" transform="translate(0.416504)"/>
</clipPath>
</defs>
</svg>
