<svg width="39" height="24" viewBox="0 0 39 24" fill="none" xmlns="http://www.w3.org/2000/svg">
<path d="M33.0203 6.17143H24.1114C23.4961 6.17143 22.9978 5.70932 22.9978 5.14286C22.9978 4.5764 23.4961 4.11429 24.1114 4.11429H33.0203C33.6356 4.11429 34.1339 4.5764 34.1339 5.14286C34.1339 5.70932 33.6356 6.17143 33.0203 6.17143ZM15.0551 6.17143C14.4398 6.17143 13.9415 5.70932 13.9415 5.14286C13.9415 4.5764 14.4398 4.11429 15.0551 4.11429C15.6704 4.11429 16.1687 4.5764 16.1687 5.14286C16.1687 5.70932 15.6704 6.17143 15.0551 6.17143ZM10.6057 6.17143C9.99045 6.17143 9.49212 5.70932 9.49212 5.14286C9.49212 4.5764 9.99045 4.11429 10.6057 4.11429C11.221 4.11429 11.7193 4.5764 11.7193 5.14286C11.7193 5.70932 11.221 6.17143 10.6057 6.17143ZM6.1513 6.17143C5.53602 6.17143 5.03769 5.70932 5.03769 5.14286C5.03769 4.5764 5.53602 4.11429 6.1513 4.11429C6.76658 4.11429 7.26491 4.5764 7.26491 5.14286C7.26491 5.70932 6.76658 6.17143 6.1513 6.17143ZM35.2475 0H3.92408C2.08332 0 0.583252 1.38634 0.583252 3.08571V7.2C0.583252 8.89938 2.08332 10.2857 3.92408 10.2857H35.2475C37.0883 10.2857 38.5883 8.89938 38.5883 7.2V3.08571C38.5883 1.38634 37.0883 0 35.2475 0Z" fill="white"/>
<path d="M33.0203 19.8856H24.1114C23.4961 19.8856 22.9978 19.4235 22.9978 18.8571C22.9978 18.2906 23.4961 17.8285 24.1114 17.8285H33.0203C33.6356 17.8285 34.1339 18.2906 34.1339 18.8571C34.1339 19.4235 33.6356 19.8856 33.0203 19.8856ZM15.0551 19.8856C14.4398 19.8856 13.9415 19.4235 13.9415 18.8571C13.9415 18.2906 14.4398 17.8285 15.0551 17.8285C15.6704 17.8285 16.1687 18.2906 16.1687 18.8571C16.1687 19.4235 15.6704 19.8856 15.0551 19.8856ZM10.6057 19.8856C9.99045 19.8856 9.49212 19.4235 9.49212 18.8571C9.49212 18.2906 9.99045 17.8285 10.6057 17.8285C11.221 17.8285 11.7193 18.2906 11.7193 18.8571C11.7193 19.4235 11.221 19.8856 10.6057 19.8856ZM6.1513 19.8856C5.53602 19.8856 5.03769 19.4235 5.03769 18.8571C5.03769 18.2906 5.53602 17.8285 6.1513 17.8285C6.76658 17.8285 7.26491 18.2906 7.26491 18.8571C7.26491 19.4235 6.76658 19.8856 6.1513 19.8856ZM35.2475 13.7092H3.92408C2.08332 13.7092 0.583252 15.0956 0.583252 16.7949V20.9092C0.583252 22.6086 2.08332 23.9949 3.92408 23.9949H35.2475C37.0883 23.9949 38.5883 22.6086 38.5883 20.9092V16.7949C38.5883 15.0956 37.0883 13.7092 35.2475 13.7092Z" fill="white"/>
</svg>
