<svg width="170" height="50" viewBox="0 0 170 50" fill="none" xmlns="http://www.w3.org/2000/svg">
<path d="M63.4483 32.1388L69.7993 13.7996H73.0075L64.7607 36.0339H62.1628L53.9314 13.7996H57.1242L63.4483 32.1388Z" fill="white"/>
<path d="M91.6495 25.7571H82.0136V33.6355H93.2075V36.0339H79.0818V13.7996H93.054V16.198H82.0136V23.3587H91.6495V25.7571Z" fill="white"/>
<path d="M112.522 25.7571H102.886V33.6355H114.08V36.0339H99.9543V13.7996H113.927V16.198H102.886V23.3587H112.522V25.7571Z" fill="white"/>
<path d="M133.087 26.2138H123.758V36.0339H120.826V13.7996H134.599V16.198H123.758V23.8192H133.087V26.2176V26.2138Z" fill="white"/>
<path d="M144.384 36.0339H141.453V13.7996H144.384V36.0339Z" fill="white"/>
<path d="M169.961 36.0339H167.013L155.819 18.8996V36.0339H152.872V13.7996H155.819L167.044 31.0106V13.7996H169.961V36.0339Z" fill="white"/>
<path d="M31.6469 5.42555L21.0363 11.6077L10.748 17.5942V6.28515L20.6526 0.367747C21.3395 -0.0428628 22.1991 -0.0505377 22.8936 0.352397L31.6469 5.42555Z" fill="#27A689"/>
<path d="M43.5756 24.4019V36.229C43.5756 37.0233 43.1497 37.7563 42.4628 38.1554L33.9436 43.0712V18.9412L43.5756 24.4019Z" fill="#27A689"/>
<path d="M9.89209 6.74895V30.9135L1.30383 25.8404L0.00292969 25.0729V13.8943C0.00292969 13.1115 0.417376 12.3862 1.08893 11.9833L9.89593 6.74512L9.89209 6.74895Z" fill="#27A689"/>
<path d="M43.5738 13.5914V23.4998L22.5752 11.5921L32.4298 5.87427L42.4609 11.6612C43.1478 12.0603 43.57 12.7932 43.5738 13.5876" fill="#27A689"/>
<path d="M33.1572 32.2846V43.5247L22.8459 49.4766C22.1552 49.8757 21.3071 49.8757 20.6202 49.4766L12.0703 44.5186L22.562 38.4284L33.1572 32.2808V32.2846Z" fill="#27A689"/>
<path d="M21.0102 38.4244L11.286 44.0655L1.10519 38.1634C0.422122 37.7643 0 37.0314 0 36.2409V25.991L21.0102 38.4282V38.4244Z" fill="#27A689"/>
<path d="M21.8206 24.717L26.8477 21.8159L21.8206 18.7075L16.7168 21.8005L21.8206 24.717Z" fill="#27A689"/>
<path d="M16.4563 22.4788V28.3424L21.3606 31.0325V25.284L16.4563 22.4826V22.4788Z" fill="#27A689"/>
<path d="M27.1077 22.4788V28.3424L22.2034 31.0363V25.284L27.1077 22.4826V22.4788Z" fill="#27A689"/>
</svg>
