<svg width="33" height="32" viewBox="0 0 33 32" fill="none" xmlns="http://www.w3.org/2000/svg">
<path d="M8.08325 12C8.08325 14.1217 8.92611 16.1566 10.4264 17.6569C11.9267 19.1571 13.9615 20 16.0833 20C18.205 20 20.2398 19.1571 21.7401 17.6569C23.2404 16.1566 24.0833 14.1217 24.0833 12C24.0833 9.87827 23.2404 7.84344 21.7401 6.34315C20.2398 4.84286 18.205 4 16.0833 4C13.9615 4 11.9267 4.84286 10.4264 6.34315C8.92611 7.84344 8.08325 9.87827 8.08325 12Z" stroke="white" stroke-width="1.33333" stroke-linecap="round" stroke-linejoin="round"/>
<path d="M16.0833 4C17.8606 4.444 18.7499 7.11067 18.7499 12C18.7499 16.8893 17.8606 19.556 16.0833 20" stroke="white" stroke-width="1.33333" stroke-linecap="round" stroke-linejoin="round"/>
<path d="M16.0832 4C14.3058 4.444 13.4165 7.11067 13.4165 12C13.4165 16.8893 14.3058 19.556 16.0832 20" stroke="white" stroke-width="1.33333" stroke-linecap="round" stroke-linejoin="round"/>
<path d="M8.08325 12H24.0833" stroke="white" stroke-width="1.33333" stroke-linecap="round" stroke-linejoin="round"/>
<path d="M4.08325 26.6667H13.4166" stroke="white" stroke-width="1.33333" stroke-linecap="round" stroke-linejoin="round"/>
<path d="M18.75 26.6667H28.0833" stroke="white" stroke-width="1.33333" stroke-linecap="round" stroke-linejoin="round"/>
<path d="M13.4165 26.6667C13.4165 27.3739 13.6975 28.0522 14.1976 28.5523C14.6977 29.0524 15.3759 29.3333 16.0832 29.3333C16.7904 29.3333 17.4687 29.0524 17.9688 28.5523C18.4689 28.0522 18.7498 27.3739 18.7498 26.6667C18.7498 25.9594 18.4689 25.2811 17.9688 24.781C17.4687 24.281 16.7904 24 16.0832 24C15.3759 24 14.6977 24.281 14.1976 24.781C13.6975 25.2811 13.4165 25.9594 13.4165 26.6667Z" stroke="white" stroke-width="1.33333" stroke-linecap="round" stroke-linejoin="round"/>
<path d="M16.0833 20V24" stroke="white" stroke-width="1.33333" stroke-linecap="round" stroke-linejoin="round"/>
</svg>
